<?xml version="1.0" encoding="utf-8"?>
<!-- Generator: Adobe Illustrator 22.0.1, SVG Export Plug-In . SVG Version: 6.00 Build 0)  -->
<svg version="1.1"
	 id="svg480347" viewport-fill="#FFFFFF" xmlns:cc="http://creativecommons.org/ns#" xmlns:dc="http://purl.org/dc/elements/1.1/" xmlns:rdf="http://www.w3.org/1999/02/22-rdf-syntax-ns#" xmlns:svg="http://www.w3.org/2000/svg"
	 xmlns="http://www.w3.org/2000/svg" xmlns:xlink="http://www.w3.org/1999/xlink" x="0px" y="0px" viewBox="0 0 478.5 102.2"
	 style="enable-background:new 0 0 478.5 102.2;" xml:space="preserve">
<style type="text/css">
	.st0{fill:#0A3160;}
</style>
<g id="title">
	<path id="path480355" class="st0" d="M66,9.8c-7.2-6-17.1-9.1-29.8-9.1H0v6.6h36.1c10.7,0,18.9,2.4,24.6,7.2
		c5.6,4.8,8.5,11.5,8.5,20.2c0,8.8-2.9,15.6-8.5,20.2c-5.8,4.8-14,7.1-24.6,7.1H0v39.6h7.3v-33h28.8c12.7,0,22.6-2.9,29.8-8.9
		s10.8-14.3,10.8-24.9C76.8,24.2,73.2,15.8,66,9.8z"/>
	<path id="path480357" class="st0" d="M133.3,0.7H126L79.6,101.5h7.9l42-92.7l42.2,92.7h7.9L133.3,0.7z"/>
	<path id="path480359" class="st0" d="M223.2,66.8l40.6-66.1h-7.6L219.7,60L183.3,0.7h-8.1l40.6,66.1v34.7h7.3V66.8z"/>
	<path id="path480361" class="st0" d="M293.9,95.6c7.9,4.5,16.8,6.6,26.8,6.6c9.8,0,18.7-2.2,26.8-6.6c7.9-4.3,14.1-10.5,18.7-18.3
		c4.6-7.8,6.9-16.4,6.9-26.2c0-9.6-2.3-18.4-6.9-26.2s-10.8-13.8-18.7-18.3c-8.1-4.3-17-6.6-26.8-6.6c-9.9,0-18.9,2.3-26.8,6.8
		c-8.1,4.5-14.3,10.5-18.9,18.3s-6.8,16.6-6.8,26.1c0,9.6,2.2,18.3,6.8,26.1C279.6,85,285.8,91.2,293.9,95.6z M343.5,89.7
		c-6.9,3.9-14.5,5.8-22.9,5.8c-8.5,0-16.1-1.9-23-5.8c-6.9-3.7-12.2-9.1-16.1-15.8c-4-6.8-5.9-14.4-5.9-22.8s1.9-15.8,5.9-22.6
		c3.9-6.8,9.2-12.1,16.1-16c6.9-3.7,14.5-5.8,23-5.8c8.4,0,16,2,22.9,5.8c6.8,3.9,12.1,9.2,16.1,16c3.9,6.8,5.9,14.3,5.9,22.6
		s-2,16-5.9,22.8C355.6,80.6,350.3,86,343.5,89.7z"/>
	<path id="path480363" class="st0" d="M408.2,91.2c7.1,7.5,17,11.1,29.8,11.1c12.7,0,22.6-3.6,29.8-11.1
		c7.1-7.3,10.7-18.1,10.7-32.4v-58h-7.3v57.7c0,12.4-2.9,21.7-8.5,27.8c-5.8,6.2-13.8,9.2-24.5,9.2c-10.8,0-19-3-24.6-9.2
		c-5.8-6-8.5-15.4-8.5-27.8V0.7h-7.3v58C397.7,73,401.1,83.8,408.2,91.2z"/>
</g>
<g id="tagline">
</g>
</svg>
