<?xml version="1.0" encoding="utf-8"?>
<!-- Generator: Adobe Illustrator 22.0.1, SVG Export Plug-In . SVG Version: 6.00 Build 0)  -->
<svg version="1.1" id="Capa_1" xmlns="http://www.w3.org/2000/svg" xmlns:xlink="http://www.w3.org/1999/xlink" x="0px" y="0px"
	 viewBox="0 0 458 512" style="enable-background:new 0 0 458 512;" xml:space="preserve">
<style type="text/css">
	.st0{fill:#0A3160;}
</style>
<g>
	<g>
		<path class="st0" d="M448,246h-74V10c0-4-2.4-7.7-6.2-9.2c-3.7-1.5-8-0.7-10.9,2.2l-28.3,28.3L300.3,2.9C296.3-1,290-1,286.1,2.9
			l-28.3,28.3L229.5,2.9c-3.9-3.9-10.2-3.9-14.1,0L187,31.3L158.7,2.9c-3.9-3.9-10.2-3.9-14.1,0l-28.3,28.3L87.9,2.9
			C84-1,77.6-1,73.7,2.9L45.4,31.3L17.1,2.9C13.2-1,6.9-1,3,2.9c-2.1,2-3.1,4.7-3,7.4V460c0,28.7,23.3,52,52,52h354c0,0,0,0,0,0
			c0,0,0,0,0,0c28.7,0,52-23.3,52-52V256C458,250.5,453.5,246,448,246z M52,492c-17.6,0-32-14.4-32-32V34.2l18.3,18.3
			c3.9,3.9,10.2,3.9,14.1,0l28.3-28.3l28.3,28.3c3.9,3.9,10.2,3.9,14.1,0l28.3-28.3l28.3,28.3c3.9,3.9,10.2,3.9,14.1,0l28.3-28.3
			l28.3,28.3c3.9,3.9,10.2,3.9,14.1,0l28.3-28.3l28.3,28.3c3.9,3.9,10.2,3.9,14.1,0L354,34.1V256c0,0.1,0,0.2,0,0.3V460
			c0,12.1,4.1,23.2,11.1,32L52,492L52,492z M438,460c0,17.6-14.4,32-32,32s-32-14.4-32-32V266h64L438,460L438,460z"/>
	</g>
</g>
<g>
	<g>
		<path class="st0" d="M187,158.9c-9.9,0-18-6.9-18-15.4c0-8.5,8.1-15.4,18-15.4c9.9,0,18,6.9,18,15.4c0,5.5,4.5,10,10,10
			s10-4.5,10-10c0-16.3-11.9-30.1-28-34.2v-6.8c0-5.5-4.5-10-10-10s-10,4.5-10,10v6.8c-16.1,4.1-28,17.9-28,34.2
			c0,19.5,17,35.4,38,35.4c9.9,0,18,6.9,18,15.4s-8.1,15.4-18,15.4c-9.9,0-18-6.9-18-15.4c0-5.5-4.5-10-10-10s-10,4.5-10,10
			c0,16.3,11.9,30.1,28,34.2v8.2c0,5.5,4.5,10,10,10s10-4.5,10-10v-8.2c16.1-4.1,28-17.9,28-34.2C225,174.7,207.9,158.9,187,158.9z"
			/>
	</g>
</g>
<g>
	<g>
		<path class="st0" d="M287.5,158.9H268c-5.5,0-10,4.5-10,10s4.5,10,10,10h19.5c5.5,0,10-4.5,10-10S293,158.9,287.5,158.9z"/>
	</g>
</g>
<g>
	<g>
		<path class="st0" d="M106,158.9H86.5c-5.5,0-10,4.5-10,10s4.5,10,10,10H106c5.5,0,10-4.5,10-10S111.5,158.9,106,158.9z"/>
	</g>
</g>
<g>
	<g>
		<path class="st0" d="M292.5,270H134.1c-5.5,0-10,4.5-10,10s4.5,10,10,10h158.4c5.5,0,10-4.5,10-10C302.5,274.5,298,270,292.5,270z
			"/>
	</g>
</g>
<g>
	<g>
		<path class="st0" d="M88.5,272.9c-1.9-1.9-4.4-2.9-7.1-2.9s-5.2,1.1-7.1,2.9s-2.9,4.4-2.9,7.1s1.1,5.2,2.9,7.1
			c1.9,1.9,4.4,2.9,7.1,2.9s5.2-1.1,7.1-2.9s2.9-4.4,2.9-7.1S90.4,274.8,88.5,272.9z"/>
	</g>
</g>
<g>
	<g>
		<path class="st0" d="M292.5,336H134.1c-5.5,0-10,4.5-10,10s4.5,10,10,10h158.4c5.5,0,10-4.5,10-10C302.5,340.5,298,336,292.5,336z
			"/>
	</g>
</g>
<g>
	<g>
		<path class="st0" d="M88.5,338.9c-1.9-1.9-4.4-2.9-7.1-2.9s-5.2,1.1-7.1,2.9s-2.9,4.4-2.9,7.1s1.1,5.2,2.9,7.1
			c1.9,1.9,4.4,2.9,7.1,2.9s5.2-1.1,7.1-2.9s2.9-4.4,2.9-7.1S90.4,340.8,88.5,338.9z"/>
	</g>
</g>
<g>
	<g>
		<path class="st0" d="M292.5,402H134.1c-5.5,0-10,4.5-10,10s4.5,10,10,10h158.4c5.5,0,10-4.5,10-10S298,402,292.5,402z"/>
	</g>
</g>
<g>
	<g>
		<path class="st0" d="M88.5,404.9c-1.9-1.9-4.4-2.9-7.1-2.9s-5.2,1.1-7.1,2.9s-2.9,4.4-2.9,7.1s1.1,5.2,2.9,7.1
			c1.9,1.9,4.4,2.9,7.1,2.9s5.2-1.1,7.1-2.9s2.9-4.4,2.9-7.1S90.4,406.8,88.5,404.9z"/>
	</g>
</g>
</svg>
