<?xml version="1.0" encoding="utf-8"?>
<!-- Generator: Adobe Illustrator 22.0.1, SVG Export Plug-In . SVG Version: 6.00 Build 0)  -->
<svg version="1.1" id="Capa_1" xmlns="http://www.w3.org/2000/svg" xmlns:xlink="http://www.w3.org/1999/xlink" x="0px" y="0px"
	 viewBox="0 0 387.4 512" style="enable-background:new 0 0 387.4 512;" xml:space="preserve">
<style type="text/css">
	.st0{fill:#0A3160;}
</style>
<g>
	<g>
		<path class="st0" d="M182.9,11.1C175.7,3.9,166.2,0,156,0c-7.7,0-15.1,2.3-21.4,6.6C128.4,2.3,121.1,0,113.3,0
			c-10.1,0-19.7,3.9-26.8,11.1c-7.2,7.2-11.1,16.7-11.1,26.8c0,10.1,3.9,19.7,11.1,26.8l42.7,42.7c1.5,1.5,3.5,2.3,5.5,2.3
			s4-0.8,5.5-2.3l42.7-42.7C197.7,50,197.7,25.9,182.9,11.1z M171.9,53.8l-37.2,37.3L97.4,53.8c-4.2-4.2-6.6-9.9-6.6-15.9
			s2.3-11.6,6.6-15.9c4.2-4.2,9.9-6.6,15.9-6.6s11.6,2.3,15.9,6.6c1.4,1.5,3.4,2.3,5.5,2.3s4-0.8,5.5-2.3c4.2-4.2,9.9-6.6,15.9-6.6
			s11.6,2.3,15.9,6.6C180.7,30.8,180.7,45.1,171.9,53.8z"/>
	</g>
</g>
<g>
	<g>
		<path class="st0" d="M254.3,95.1c-4.3-4.3-10-6.7-16.2-6.7c-3.8,0-7.4,0.9-10.7,2.6c-3.3-1.7-6.9-2.6-10.7-2.6
			c-6.1,0-11.8,2.4-16.1,6.7c-4.3,4.3-6.7,10-6.7,16.2c0,6.1,2.4,11.8,6.7,16.2l21.4,21.4c1.5,1.4,3.4,2.3,5.5,2.3
			c2.1,0,4-0.8,5.5-2.3l21.4-21.4C263.2,118.5,263.2,104,254.3,95.1z M243.4,116.5l-15.9,15.9l-15.9-15.9c-1.4-1.4-2.2-3.2-2.2-5.2
			s0.8-3.8,2.2-5.2c1.4-1.4,3.2-2.2,5.2-2.2c2,0,3.8,0.8,5.2,2.2c1.5,1.4,3.4,2.3,5.5,2.3h0c2.1,0,4-0.8,5.5-2.3
			c1.4-1.4,3.2-2.2,5.2-2.2c2,0,3.8,0.8,5.2,2.2C246.3,108.9,246.3,113.6,243.4,116.5z"/>
	</g>
</g>
<g>
	<g>
		<path class="st0" d="M379.7,124.6c-1.9,0-47.2,0.3-71.1,24.1l-48,48L31.5,139.4c-0.1,0-0.1,0-0.2,0c-0.1,0-0.3-0.1-0.4-0.1
			c-0.1,0-0.2,0-0.3,0c-0.1,0-0.3,0-0.4,0c-0.1,0-0.2,0-0.4,0c-0.1,0-0.2,0-0.4,0c-0.1,0-0.2,0-0.4,0c-0.1,0-0.3,0-0.4,0
			c-0.1,0-0.2,0-0.3,0c-0.1,0-0.3,0.1-0.4,0.1c-0.1,0-0.2,0-0.3,0.1c-0.2,0-0.3,0.1-0.5,0.1c-0.1,0-0.1,0-0.2,0.1
			c-0.2,0.1-0.3,0.1-0.5,0.2c-0.1,0-0.1,0.1-0.2,0.1c-0.2,0.1-0.3,0.2-0.5,0.3c-0.1,0-0.1,0.1-0.2,0.1c-0.1,0.1-0.3,0.2-0.4,0.3
			c-0.1,0.1-0.2,0.1-0.2,0.2c-0.1,0.1-0.2,0.2-0.3,0.3c-0.1,0.1-0.2,0.2-0.3,0.3c-0.1,0-0.1,0.1-0.2,0.1L2.3,163.3
			c0,0-0.1,0.1-0.1,0.1c-0.1,0.1-0.2,0.2-0.3,0.3c-0.1,0.1-0.2,0.2-0.3,0.3c0,0-0.1,0.1-0.1,0.1c0,0.1-0.1,0.1-0.1,0.2
			c-0.1,0.1-0.2,0.2-0.2,0.4C1.1,164.8,1,164.9,1,165c-0.1,0.1-0.1,0.3-0.2,0.4c-0.1,0.1-0.1,0.2-0.1,0.3c-0.1,0.1-0.1,0.2-0.1,0.4
			c0,0.1-0.1,0.2-0.1,0.4c0,0.1-0.1,0.2-0.1,0.3c0,0.1-0.1,0.3-0.1,0.4c0,0.1,0,0.2-0.1,0.3c0,0.1,0,0.3-0.1,0.4c0,0.1,0,0.2,0,0.3
			c0,0.1,0,0.3,0,0.4c0,0.1,0,0.2,0,0.4c0,0.1,0,0.2,0,0.4c0,0.1,0,0.3,0,0.4c0,0.1,0,0.2,0,0.3c0,0.1,0,0.3,0.1,0.4
			c0,0.1,0,0.2,0.1,0.3c0,0.1,0.1,0.3,0.1,0.4c0,0.1,0.1,0.2,0.1,0.3c0,0.1,0.1,0.3,0.2,0.4c0,0.1,0.1,0.2,0.1,0.3
			c0.1,0.1,0.1,0.2,0.2,0.3c0.1,0.1,0.1,0.2,0.2,0.3c0.1,0.1,0.1,0.2,0.2,0.3c0.1,0.1,0.2,0.2,0.3,0.3c0.1,0.1,0.1,0.2,0.2,0.3
			c0.1,0.1,0.2,0.2,0.3,0.3c0,0,0.1,0.1,0.1,0.1c0,0,0.1,0.1,0.1,0.1c0.1,0.1,0.2,0.2,0.3,0.3c0.1,0.1,0.2,0.2,0.3,0.3
			c0,0,0.1,0.1,0.1,0.1l160.5,118.6l-77.8,77.8l-39.2-13.1c-0.1,0-0.2,0-0.2-0.1c-0.1,0-0.3-0.1-0.4-0.1c-0.1,0-0.3-0.1-0.4-0.1
			c-0.1,0-0.2,0-0.3-0.1c-0.1,0-0.3,0-0.4,0c-0.1,0-0.2,0-0.3,0c-0.2,0-0.3,0-0.5,0c-0.1,0-0.2,0-0.3,0c-0.2,0-0.3,0-0.5,0
			c-0.1,0-0.2,0-0.3,0c-0.1,0-0.3,0.1-0.4,0.1c-0.1,0-0.2,0-0.3,0.1c-0.1,0-0.3,0.1-0.4,0.1c-0.1,0-0.2,0.1-0.3,0.1
			c-0.2,0.1-0.3,0.1-0.5,0.2c-0.1,0-0.2,0.1-0.2,0.1c-0.2,0.1-0.3,0.2-0.5,0.3c0,0-0.1,0-0.1,0.1l-0.1,0.1c0,0,0,0,0,0L3.8,380.9
			c0,0,0,0-0.1,0l0,0c0,0,0,0-0.1,0c-0.2,0.1-0.4,0.2-0.6,0.4c-0.1,0-0.1,0.1-0.2,0.1c-0.1,0.1-0.3,0.2-0.4,0.3
			c-0.1,0.1-0.2,0.2-0.3,0.3c-0.1,0.1-0.2,0.2-0.3,0.3c-0.1,0.1-0.2,0.3-0.3,0.4c0,0.1-0.1,0.1-0.2,0.2c-0.1,0.2-0.3,0.4-0.4,0.6
			c0,0,0,0,0,0.1c0,0,0,0,0,0c-0.3,0.4-0.5,0.9-0.7,1.4c-0.1,0.2-0.1,0.4-0.2,0.6c0,0,0,0.1,0,0.1c0,0.2-0.1,0.4-0.1,0.6
			c0,0.1,0,0.1,0,0.2c0,0.2,0,0.3-0.1,0.5c0,0.1,0,0.2,0,0.3c0,0.1,0,0.2,0,0.4c0,0.1,0,0.3,0,0.4c0,0.1,0,0.2,0,0.2
			c0,0.2,0,0.3,0.1,0.5c0,0,0,0.1,0,0.1c0,0.2,0.1,0.4,0.1,0.6c0,0,0,0,0,0c0.1,0.4,0.2,0.7,0.4,1.1c0,0.1,0.1,0.2,0.1,0.3
			c0,0,0,0.1,0,0.1c0.1,0.2,0.2,0.4,0.3,0.6c0,0,0,0,0,0c0,0,0,0,0,0c0.2,0.2,0.3,0.5,0.5,0.7c0.1,0.1,0.1,0.1,0.2,0.2
			c0.1,0.2,0.3,0.3,0.5,0.5c0.1,0.1,0.1,0.1,0.2,0.2c0.2,0.2,0.4,0.4,0.7,0.6c0.1,0.1,0.2,0.1,0.2,0.2c0.1,0.1,0.3,0.2,0.4,0.3
			l64.4,38.7l-7.6,7.6c-3,3-3,7.9,0,10.9c1.5,1.5,3.5,2.3,5.5,2.3s4-0.8,5.5-2.3l7.6-7.6l38.6,64.4c0,0,0,0,0,0.1l0,0c0,0,0,0,0,0
			c0.2,0.3,0.3,0.5,0.5,0.7c0,0.1,0.1,0.1,0.2,0.2c0.2,0.2,0.3,0.4,0.5,0.5c0.1,0.1,0.1,0.1,0.2,0.2c0.2,0.2,0.4,0.4,0.7,0.6
			c0.1,0.1,0.1,0.1,0.2,0.1c0.1,0.1,0.3,0.2,0.4,0.3c0,0,0.1,0,0.1,0c0.2,0.1,0.4,0.2,0.6,0.3c0.1,0.1,0.2,0.1,0.4,0.2
			c0.2,0.1,0.3,0.1,0.5,0.2c0.1,0,0.3,0.1,0.4,0.1c0.2,0,0.3,0.1,0.5,0.1c0.2,0,0.3,0.1,0.5,0.1c0.2,0,0.4,0,0.6,0
			c0.1,0,0.2,0,0.3,0c0,0,0,0,0,0s0,0,0,0c0.1,0,0.2,0,0.3,0c0.2,0,0.4,0,0.6,0c0.2,0,0.4-0.1,0.5-0.1c0.2,0,0.3-0.1,0.5-0.1
			c0.2,0,0.3-0.1,0.5-0.1c0.2-0.1,0.3-0.1,0.5-0.2c0.1-0.1,0.2-0.1,0.4-0.2c0.2-0.1,0.4-0.2,0.6-0.3c0,0,0.1,0,0.1-0.1
			c0.2-0.1,0.3-0.2,0.4-0.3c0.1,0,0.1-0.1,0.2-0.1c0.2-0.2,0.5-0.4,0.7-0.6c0.1-0.1,0.1-0.1,0.2-0.2c0.2-0.2,0.3-0.3,0.5-0.5
			c0.1-0.1,0.1-0.1,0.1-0.2c0.2-0.2,0.4-0.5,0.5-0.7c0,0,0,0,0,0l0,0c0,0,0,0,0-0.1l21.8-36.4c0-0.1,0.1-0.2,0.1-0.2
			c0.1-0.1,0.1-0.2,0.2-0.4c0.1-0.1,0.1-0.2,0.2-0.4c0-0.1,0.1-0.2,0.1-0.3c0-0.1,0.1-0.3,0.1-0.4c0-0.1,0.1-0.2,0.1-0.3
			c0-0.1,0.1-0.3,0.1-0.4c0-0.1,0-0.2,0.1-0.3c0-0.1,0-0.3,0-0.4c0-0.1,0-0.2,0-0.4c0-0.1,0-0.2,0-0.4c0-0.1,0-0.3,0-0.4
			c0-0.1,0-0.2,0-0.3c0-0.1,0-0.3,0-0.4c0-0.1,0-0.2-0.1-0.4c0-0.1,0-0.3-0.1-0.4c0-0.1-0.1-0.3-0.1-0.4c0-0.1,0-0.2-0.1-0.3
			l-13.1-39.2l222.7-222.7c0,0,0,0,0,0c23.9-23.9,24.1-69.2,24.1-71.1C387.4,128.1,383.9,124.6,379.7,124.6z M19.5,167.9L32,155.5
			l215.9,54l-73.1,73.1L19.5,167.9z M352.4,192.5C352.3,192.5,352.3,192.5,352.4,192.5L126.2,418.6c0,0,0,0.1-0.1,0.1
			c-0.1,0.1-0.2,0.2-0.3,0.3c-0.1,0.1-0.1,0.2-0.2,0.3c-0.1,0.1-0.1,0.2-0.2,0.3c-0.1,0.1-0.2,0.2-0.2,0.3c-0.1,0.1-0.1,0.2-0.1,0.2
			c-0.1,0.1-0.2,0.3-0.2,0.4c0,0.1-0.1,0.1-0.1,0.2c-0.1,0.2-0.1,0.3-0.2,0.5c0,0.1-0.1,0.2-0.1,0.2c-0.1,0.1-0.1,0.3-0.1,0.5
			c0,0.1-0.1,0.2-0.1,0.3c0,0.1-0.1,0.3-0.1,0.4c0,0.1,0,0.3-0.1,0.4c0,0.1,0,0.2,0,0.3c0,0.2,0,0.3,0,0.5c0,0.1,0,0.2,0,0.3
			c0,0.1,0,0.3,0,0.4c0,0.1,0,0.2,0,0.3c0,0.1,0,0.3,0.1,0.4c0,0.1,0,0.3,0.1,0.4c0,0.1,0,0.2,0.1,0.3c0,0.2,0.1,0.3,0.1,0.5
			c0,0,0,0.1,0,0.1l13.5,40.4l-13.4,22.4l-34-56.7l32.2-32.2c3-3,3-7.9,0-10.9c-3-3-7.9-3-10.9,0l-32.2,32.2l-56.7-34l22.4-13.4
			l40.4,13.5c0,0,0.1,0,0.1,0c0.3,0.1,0.7,0.2,1,0.3c0.1,0,0.2,0,0.3,0c0.3,0,0.6,0.1,1,0.1c0,0,0.1,0,0.1,0c0,0,0.1,0,0.1,0
			c0.3,0,0.6,0,0.9-0.1c0.1,0,0.2,0,0.3,0c0.3-0.1,0.7-0.1,1-0.2c0.1,0,0.1,0,0.2-0.1c0.3-0.1,0.6-0.2,0.9-0.4c0.1,0,0.1,0,0.2-0.1
			c0.3-0.2,0.6-0.3,0.9-0.5c0.1-0.1,0.1-0.1,0.2-0.2c0.2-0.2,0.4-0.3,0.6-0.5c0.1-0.1,0.1-0.1,0.2-0.2c0,0,0,0,0,0l226.1-226.1
			c14-14,39.1-18,52-19.1C370.4,153.4,366.4,178.4,352.4,192.5z"/>
	</g>
</g>
<g>
	<g>
		<path class="st0" d="M372.8,481.8c0-0.1,0-0.3,0-0.4c0-0.1,0-0.2-0.1-0.4c0-0.1-0.1-0.3-0.1-0.4c0-0.1,0-0.1,0-0.2L323,282.1
			c-1-4.1-5.2-6.7-9.4-5.6c-4.1,1-6.7,5.2-5.6,9.4L356.5,480l-12.4,12.4L244,357.1c-2.5-3.4-7.4-4.2-10.8-1.6
			c-3.4,2.5-4.2,7.4-1.6,10.8L337,508.9c0,0,0.1,0.1,0.1,0.1c0.1,0.2,0.2,0.3,0.4,0.5c0.1,0.1,0.1,0.2,0.2,0.2c0,0,0,0.1,0.1,0.1
			c0.1,0.1,0.2,0.2,0.3,0.3c0.1,0.1,0.1,0.1,0.2,0.2c0.2,0.2,0.4,0.3,0.7,0.5c0.1,0,0.1,0.1,0.2,0.1c0.2,0.1,0.4,0.2,0.5,0.3
			c0.1,0,0.2,0.1,0.3,0.1c0.2,0.1,0.3,0.2,0.5,0.2c0.1,0,0.2,0.1,0.3,0.1c0.2,0.1,0.4,0.1,0.5,0.2c0.1,0,0.2,0,0.3,0.1
			c0.2,0,0.4,0.1,0.6,0.1c0.1,0,0.2,0,0.2,0c0.3,0,0.5,0,0.8,0c0,0,0,0,0,0c0,0,0,0,0,0c0.3,0,0.7,0,1-0.1c0.1,0,0.2,0,0.2,0
			c0.3-0.1,0.7-0.1,1-0.2c0.1,0,0.1,0,0.2-0.1c0.3-0.1,0.6-0.2,1-0.4c0,0,0.1,0,0.1,0c0.3-0.2,0.7-0.4,1-0.6c0,0,0.1,0,0.1-0.1
			c0,0,0.1-0.1,0.1-0.1c0.1-0.1,0.2-0.2,0.3-0.3c0.1-0.1,0.2-0.2,0.3-0.3c0,0,0.1-0.1,0.1-0.1l21.9-21.9c0,0,0.1-0.1,0.1-0.1
			c0.1-0.1,0.2-0.2,0.3-0.3c0.1-0.1,0.2-0.2,0.2-0.3c0.1-0.1,0.1-0.2,0.2-0.3c0.1-0.1,0.2-0.2,0.2-0.4c0.1-0.1,0.1-0.2,0.2-0.3
			c0.1-0.1,0.1-0.3,0.2-0.4c0-0.1,0.1-0.2,0.1-0.3c0.1-0.1,0.1-0.3,0.2-0.4c0-0.1,0.1-0.2,0.1-0.3c0-0.1,0.1-0.3,0.1-0.4
			c0-0.1,0.1-0.2,0.1-0.4c0-0.1,0.1-0.2,0.1-0.4c0-0.1,0-0.3,0.1-0.4c0-0.1,0-0.2,0-0.3c0-0.1,0-0.3,0-0.4c0-0.1,0-0.2,0-0.3
			C372.8,482.1,372.8,482,372.8,481.8z"/>
	</g>
</g>
</svg>
