<?xml version="1.0" encoding="utf-8"?>
<!-- Generator: Adobe Illustrator 22.0.1, SVG Export Plug-In . SVG Version: 6.00 Build 0)  -->
<svg version="1.1" id="Capa_1" xmlns="http://www.w3.org/2000/svg" xmlns:xlink="http://www.w3.org/1999/xlink" x="0px" y="0px"
	 viewBox="0 0 612 575.4" style="enable-background:new 0 0 612 575.4;" xml:space="preserve">
<style type="text/css">
	.st0{fill:#0A3160;}
</style>
<g>
	<g>
		<path class="st0" d="M511.1,282c-9.9,0-17.6,7.7-17.6,17.7v241.1H368.4v-98.5c0-9.2-7.7-17.3-17-17.3H261c-9.9,0-18,8.1-18,17.3
			v98.5H118.2V307.6c0-9.3-7.7-17-17.6-17c-9.3,0-17,7.7-17,17v250.8c0,9.3,7.7,17,17,17H261c9.3,0,17-7.7,17-17v-98.5h55.8v98.5
			c0,9.3,7.7,17,17.6,17h159.7c9.3,0,17-7.7,17-17V299.6C528.1,289.6,520.4,282,511.1,282z"/>
		<path class="st0" d="M607,295.7L467.8,155.9V60.6c0-9.9-8-17.6-18-17.6c-9.3,0-17,7.7-17,17.6V121L318,5.5
			c-3.5-3.6-7.7-5.5-11.9-5.5c-4.8,0-9,2-12.5,5.5L5.4,293.8c-6.9,6.9-7.4,18,0,24.4c6.4,7.4,17.5,6.9,24.4,0L306.2,42.4L582,320.7
			c2.9,2.9,7.1,4.5,12.5,4.5c4.8,0,9-1.6,12.5-4.5C613.4,314.3,613.9,302.7,607,295.7z"/>
	</g>
</g>
</svg>
