<?xml version="1.0" encoding="utf-8"?>
<!-- Generator: Adobe Illustrator 22.0.1, SVG Export Plug-In . SVG Version: 6.00 Build 0)  -->
<svg version="1.1" id="Capa_1" xmlns="http://www.w3.org/2000/svg" xmlns:xlink="http://www.w3.org/1999/xlink" x="0px" y="0px"
	 viewBox="0 0 512 512" style="enable-background:new 0 0 512 512;" xml:space="preserve">
<style type="text/css">
	.st0{fill:#0A3160;}
</style>
<g>
	<g>
		<path class="st0" d="M275.7,153.2l46-38.3c0,0,0,0,0,0l0,0c0.1-0.1,0.3-0.3,0.4-0.4c0,0,0.1-0.1,0.1-0.1c0.2-0.2,0.3-0.3,0.5-0.5
			c0,0,0,0,0.1-0.1c0.1-0.2,0.3-0.3,0.4-0.5c0-0.1,0.1-0.1,0.1-0.2c0.1-0.1,0.2-0.3,0.2-0.4c0.1-0.1,0.1-0.2,0.1-0.3
			c0.1-0.1,0.1-0.2,0.2-0.3c0-0.1,0.1-0.2,0.1-0.3c0-0.1,0.1-0.2,0.1-0.3c0-0.1,0.1-0.2,0.1-0.3c0-0.1,0.1-0.2,0.1-0.3
			c0-0.1,0-0.2,0.1-0.3c0-0.1,0-0.3,0.1-0.4c0-0.1,0-0.2,0-0.3c0-0.2,0-0.3,0-0.5c0-0.1,0-0.1,0-0.2c0,0,0,0,0,0c0-0.2,0-0.5,0-0.7
			c0,0,0-0.1,0-0.1c0-0.2-0.1-0.4-0.1-0.6c0-0.1,0-0.2-0.1-0.3c0-0.1-0.1-0.3-0.1-0.4c0-0.1-0.1-0.2-0.1-0.3c0-0.1-0.1-0.2-0.1-0.3
			c0-0.1-0.1-0.2-0.2-0.4c0-0.1-0.1-0.2-0.1-0.3c-0.1-0.1-0.1-0.2-0.2-0.3c0-0.1-0.1-0.1-0.1-0.2l-18.7-30.4
			c-1.4-2.3-3.8-3.6-6.5-3.6h-11.7c0,0,0,0,0,0l-72.6,0c-2.6,0-5.1,1.4-6.5,3.6L188.7,105c0,0.1-0.1,0.1-0.1,0.2
			c-0.1,0.1-0.1,0.2-0.2,0.3c-0.1,0.1-0.1,0.2-0.1,0.3c-0.1,0.1-0.1,0.2-0.2,0.4c0,0.1-0.1,0.2-0.1,0.3c0,0.1-0.1,0.2-0.1,0.3
			c0,0.1-0.1,0.3-0.1,0.4c0,0.1,0,0.2-0.1,0.3c0,0.2-0.1,0.4-0.1,0.6c0,0,0,0.1,0,0.1c0,0.2,0,0.5,0,0.7c0,0,0,0,0,0
			c0,0.1,0,0.1,0,0.2c0,0.2,0,0.3,0,0.5c0,0.1,0,0.2,0,0.3c0,0.1,0,0.3,0.1,0.4c0,0.1,0,0.2,0.1,0.3c0,0.1,0.1,0.2,0.1,0.3
			c0,0.1,0.1,0.2,0.1,0.3c0,0.1,0.1,0.2,0.1,0.3c0,0.1,0.1,0.2,0.1,0.3c0.1,0.1,0.1,0.2,0.2,0.3c0,0.1,0.1,0.2,0.1,0.3
			c0.1,0.1,0.2,0.3,0.2,0.4c0,0.1,0.1,0.1,0.1,0.2c0.1,0.2,0.2,0.3,0.4,0.5c0,0,0,0,0.1,0.1c0.2,0.2,0.3,0.4,0.5,0.5
			c0,0,0.1,0.1,0.1,0.1c0.1,0.1,0.3,0.3,0.4,0.4l0,0c0,0,0,0,0,0l46,38.3C146.3,163,76,239.5,76,332c0,99.2,80.7,180,180,180
			s180-80.7,180-180C436,239.5,365.7,163,275.7,153.2z M263.6,143.4v-26.9h32.2L263.6,143.4z M289.6,86.2h4.3l9.3,15.2h-28.9
			L289.6,86.2z M268.1,86.2L256,98.2l-12.1-12.1H268.1z M218.1,86.2h4.3l15.2,15.2h-28.9L218.1,86.2z M216.2,116.6h32.2v26.9
			L216.2,116.6z M256,496.8c-90.8,0-164.8-73.9-164.8-164.8S165.2,167.3,256,167.3S420.8,241.2,420.8,332S346.8,496.8,256,496.8z"/>
	</g>
</g>
<g>
	<g>
		<path class="st0" d="M393.8,273.8c-3.8-8.9-8.4-17.4-13.8-25.4c-5.4-7.9-11.5-15.4-18.3-22.1c-6.8-6.8-14.2-12.9-22.1-18.3
			c-8-5.4-16.5-10-25.4-13.8c-18.4-7.8-38-11.8-58.2-11.8s-39.8,4-58.2,11.8c-8.9,3.8-17.4,8.4-25.4,13.8
			c-7.9,5.4-15.4,11.5-22.1,18.3c-6.8,6.8-12.9,14.2-18.3,22.1c-5.4,8-10,16.5-13.8,25.4c-7.8,18.4-11.8,38-11.8,58.2
			c0,29.2,8.4,57.5,24.4,81.8c7.7,11.7,17,22.3,27.6,31.5c10.7,9.2,22.6,16.9,35.4,22.7c9.6,4.4,19.6,7.7,29.9,10
			c10.5,2.3,21.4,3.5,32.3,3.5h0c11.1,0,22.1-1.2,32.8-3.6c10.4-2.3,20.6-5.8,30.3-10.3c9.5-4.4,18.6-9.9,27-16.3
			c8.3-6.3,16-13.5,22.9-21.4c2.7-3.2,2.4-8-0.8-10.7c-1.4-1.2-3.2-1.9-5-1.9c-2.2,0-4.3,1-5.7,2.6l0,0
			c-6.2,7.1-13.1,13.6-20.6,19.2c-7.5,5.7-15.7,10.6-24.2,14.6c-8.7,4.1-17.9,7.2-27.2,9.3c-9.6,2.1-19.6,3.2-29.5,3.2
			c-19.4,0-38.1-4-55.6-12c-0.1,0-0.1-0.1-0.2-0.1c0,0,0,0,0,0c-11.5-5.3-22.2-12.1-31.8-20.4c-9.6-8.2-17.9-17.8-24.8-28.3
			c-14.3-21.8-21.9-47.3-21.9-73.5c0-18.1,3.5-35.7,10.6-52.3c6.8-16,16.4-30.4,28.8-42.7c12.3-12.3,26.7-22,42.7-28.8
			c16.6-7,34.1-10.6,52.3-10.6c18.1,0,35.7,3.5,52.3,10.6c16,6.8,30.4,16.4,42.7,28.8c12.3,12.3,22,26.7,28.8,42.7
			c7,16.5,10.6,34.1,10.6,52.3c0,11.4-1.4,22.8-4.3,33.8c-2.8,10.6-6.8,20.9-12.1,30.6c-1,1.8-1.2,3.8-0.6,5.8
			c0.6,1.9,1.9,3.6,3.6,4.5c1.1,0.6,2.4,0.9,3.6,0.9c2.8,0,5.3-1.5,6.7-4c5.9-10.8,10.4-22.2,13.5-34.1c3.2-12.2,4.8-24.9,4.8-37.6
			C405.5,311.9,401.6,292.3,393.8,273.8z"/>
	</g>
</g>
<g>
	<g>
		<path class="st0" d="M256,0c-4.2,0-7.6,3.4-7.6,7.6V38c0,4.2,3.4,7.6,7.6,7.6c4.2,0,7.6-3.4,7.6-7.6V7.6C263.6,3.4,260.2,0,256,0z
			"/>
	</g>
</g>
<g>
	<g>
		<path class="st0" d="M201.8,50.5l-15.2-26.3c-2.1-3.6-6.8-4.9-10.4-2.8c-3.6,2.1-4.9,6.8-2.8,10.4l15.2,26.3
			c1.4,2.4,4,3.8,6.6,3.8c1.3,0,2.6-0.3,3.8-1C202.6,58.8,203.9,54.2,201.8,50.5z"/>
	</g>
</g>
<g>
	<g>
		<path class="st0" d="M335.8,21.4c-3.6-2.1-8.3-0.9-10.4,2.8l-15.2,26.3c-2.1,3.6-0.9,8.3,2.8,10.4c1.2,0.7,2.5,1,3.8,1
			c2.6,0,5.2-1.4,6.6-3.8l15.2-26.3C340.7,28.1,339.5,23.5,335.8,21.4z"/>
	</g>
</g>
</svg>
